<?xml version="1.0" encoding="iso-8859-1"?>
<!-- Generator: Adobe Illustrator 18.0.0, SVG Export Plug-In . SVG Version: 6.00 Build 0)  -->
<!DOCTYPE svg PUBLIC "-//W3C//DTD SVG 1.1//EN" "http://www.w3.org/Graphics/SVG/1.1/DTD/svg11.dtd">
<svg version="1.1" id="Capa_1" xmlns="http://www.w3.org/2000/svg" xmlns:xlink="http://www.w3.org/1999/xlink" x="0px" y="0px"
	 viewBox="0 0 421.76 421.76" style="enable-background:new 0 0 421.76 421.76;" xml:space="preserve">
<path d="M397.064,371.797c-2.333-5.288-6.585-9.351-11.974-11.441c-2.158-0.837-4.371-1.299-6.566-1.425l2.408-6.21
	c1.498-3.862-0.419-8.207-4.28-9.705c-3.864-1.499-8.208,0.42-9.704,4.281l-1.36,3.507l-72.353-28.059l6.146-15.935
	c1.49-3.865-0.435-8.206-4.3-9.696c-3.862-1.49-8.205,0.434-9.696,4.299l-3.801,9.856c-8.843-4.937-17.507-10.666-25.896-17.127
	c12.534-11.803,23.973-24.308,34.269-37.497c27.119-34.739,46.423-74.196,57.376-117.275c18.64-73.308,6.736-131.011,6.22-133.432
	c-0.709-3.326-3.567-5.759-6.964-5.927c-3.397-0.172-6.481,1.97-7.516,5.21c-17.339,54.32-65.535,76.466-66.007,76.677
	c-2.465,1.094-4.152,3.427-4.421,6.109c-6.401,64.047-25.838,118.054-57.767,160.593c-31.932-42.511-51.356-96.478-57.76-160.591
	c-0.267-2.673-1.957-5.005-4.408-6.104c-0.485-0.217-48.686-22.363-66.02-76.68c-1.034-3.24-4.119-5.381-7.516-5.211
	c-3.397,0.168-6.255,2.601-6.964,5.928c-0.369,1.731-8.935,43.049-0.453,100.149c4.979,33.519,14.849,65.521,29.335,95.116
	c16.866,34.459,40.061,65.695,69.002,92.971c-9.286,7.14-18.098,12.747-25.909,17.109l-3.808-9.873
	c-1.49-3.865-5.833-5.789-9.696-4.299c-3.865,1.49-5.79,5.832-4.299,9.696l6.145,15.935l-72.353,28.059l-1.36-3.507
	c-1.498-3.861-5.84-5.779-9.705-4.281c-3.862,1.498-5.778,5.843-4.281,9.704l2.409,6.212c-2.221,0.132-4.433,0.596-6.567,1.423h0
	c-5.389,2.09-9.641,6.153-11.974,11.441c-2.333,5.288-2.466,11.168-0.376,16.556c2.089,5.388,6.152,9.641,11.44,11.973
	c2.797,1.234,5.759,1.852,8.726,1.852c2.644,0,5.292-0.491,7.831-1.475c2.47-0.958,4.687-2.348,6.604-4.064
	c9.923,15.754,27.316,25.096,45.551,25.094c6.452,0,13.012-1.17,19.38-3.64c23.429-9.086,36.891-32.925,33.907-56.814
	c18.969-9.454,36.689-19.848,53.12-31.138c16.377,11.245,34.203,21.687,53.125,31.122c-2.992,23.896,10.47,47.743,33.905,56.831
	c6.31,2.447,12.889,3.667,19.459,3.667c7.373,0,14.735-1.538,21.685-4.603c9.944-4.387,18.14-11.509,23.791-20.515
	c1.917,1.714,4.131,3.103,6.6,4.06c2.563,0.994,5.201,1.465,7.798,1.465c8.675,0,16.879-5.254,20.198-13.814
	C399.53,382.965,399.396,377.085,397.064,371.797z M354.023,380.622l-13.55-5.255l6.141-15.833l13.55,5.255L354.023,380.622z
	 M332.629,354.111l-6.141,15.833l-17.262-6.694l6.141-15.833L332.629,354.111z M301.383,341.994l-6.141,15.833l-13.516-5.241
	l6.111-15.845L301.383,341.994z M110.73,194.952c-13.813-28.129-23.25-58.569-28.049-90.476c-4.152-27.606-4.073-51.604-2.97-68.627
	c19.329,34.51,48.318,52.194,58.913,57.789c7.266,66.611,28.311,122.754,62.598,167.041c-7.793,9.134-15.706,17.042-23.458,23.876
	C149.592,258.302,127.052,228.191,110.73,194.952z M221.171,259.87c33.91-44.19,54.749-100.103,61.967-166.234
	c10.595-5.595,39.589-23.287,58.918-57.803c1.494,23.11,1.09,59.129-9.261,99.84c-10.438,41.054-28.829,78.649-54.662,111.741
	c-30.937,39.63-72.746,72.927-124.339,99.065l-6.794-17.52l-1.367-3.546C166.722,313.907,195.189,293.727,221.171,259.87z
	 M140.033,352.585l-13.516,5.241l-6.14-15.833l13.545-5.253L140.033,352.585z M95.272,369.944l-6.14-15.833l17.261-6.694
	l6.14,15.833L95.272,369.944z M75.146,359.535l6.14,15.833l-13.55,5.255l-6.14-15.833L75.146,359.535z M50.566,383.208
	c-0.716,1.622-2.02,2.868-3.672,3.509c-1.654,0.641-3.456,0.6-5.079-0.115c-1.622-0.716-2.868-2.02-3.509-3.673
	c-0.641-1.653-0.6-3.457,0.115-5.079c0.716-1.622,2.02-2.868,3.673-3.509h0c0.779-0.302,1.591-0.453,2.401-0.453
	c0.911,0,1.819,0.19,2.677,0.568c1.622,0.716,2.868,2.02,3.509,3.672l0,0.001C51.322,379.783,51.281,381.586,50.566,383.208z
	 M118.428,404.108c-15.491,6.008-32.532,1.346-42.987-10.385l67.731-26.266C143.356,383.168,133.909,398.105,118.428,404.108z
	 M244.361,304.354c10.225,8.061,20.869,15.111,31.77,21.053l-1.6,4.149l-6.564,16.927c-15.575-7.893-30.341-16.491-44.098-25.657
	C230.967,315.515,237.799,310.023,244.361,304.354z M332.998,403.433c-9.474,4.179-20.009,4.42-29.665,0.675
	c-15.48-6.003-24.927-20.939-24.743-36.651l67.745,26.272C342.687,397.835,338.173,401.15,332.998,403.433z M383.456,382.929
	c-1.323,3.411-5.178,5.112-8.588,3.788c-1.653-0.641-2.958-1.887-3.673-3.509c-0.716-1.622-0.757-3.426-0.116-5.079
	c1.019-2.626,3.535-4.238,6.196-4.238c0.796,0,1.605,0.144,2.392,0.449c1.653,0.641,2.957,1.887,3.673,3.51
	S384.096,381.276,383.456,382.929z"/>
<g>
</g>
<g>
</g>
<g>
</g>
<g>
</g>
<g>
</g>
<g>
</g>
<g>
</g>
<g>
</g>
<g>
</g>
<g>
</g>
<g>
</g>
<g>
</g>
<g>
</g>
<g>
</g>
<g>
</g>
</svg>
